<?xml version="1.0" standalone="no"?>
<!DOCTYPE svg PUBLIC "-//W3C//DTD SVG 20010904//EN"
 "http://www.w3.org/TR/2001/REC-SVG-20010904/DTD/svg10.dtd">
<svg viewBox="0 0 512.000000 512.000000" preserveAspectRatio="xMidYMid meet">
<g transform="translate(0.000000,512.000000) scale(0.100000,-0.100000)"
fill="#000000" stroke="none">
<path d="M2033 4669 c-215 -25 -453 -120 -631 -251 -137 -102 -276 -259 -365
-413 l-41 -72 -140 -35 c-202 -51 -253 -72 -307 -128 -30 -30 -50 -61 -56 -86
l-9 -39 -75 -6 c-110 -9 -177 -50 -222 -134 l-22 -40 0 -1385 0 -1385 22 -40
c25 -47 64 -85 113 -111 33 -18 80 -19 980 -22 905 -2 945 -3 965 -21 58 -53
75 -56 315 -56 240 0 257 3 315 56 20 18 60 19 965 21 900 3 947 4 980 22 49
26 88 64 113 111 l22 40 0 1385 c0 1332 -1 1386 -19 1420 -47 88 -114 130
-225 139 l-75 6 -10 40 c-6 27 -25 55 -60 90 -46 45 -62 54 -156 83 -275 84
-439 106 -745 98 -126 -3 -244 -8 -261 -12 -26 -5 -32 -2 -43 23 -36 80 -153
236 -245 328 -293 292 -669 422 -1083 374z m405 -418 c321 -93 560 -334 654
-658 20 -67 23 -102 23 -238 0 -171 -9 -221 -62 -353 -59 -150 -173 -297 -306
-398 -79 -60 -220 -128 -322 -156 -65 -18 -106 -22 -225 -21 -125 0 -159 4
-245 26 -343 92 -573 322 -661 662 -29 115 -37 306 -15 410 82 398 350 664
746 741 103 20 319 12 413 -15z m1592 -467 c197 -29 410 -92 435 -127 13 -19
15 -169 15 -1200 l0 -1178 -25 -24 c-31 -32 -48 -31 -194 4 -200 49 -353 64
-595 58 -350 -8 -618 -70 -925 -213 -52 -24 -96 -44 -97 -44 -2 0 -4 234 -4
521 l0 520 33 11 c17 6 70 31 116 55 68 36 87 41 96 31 7 -7 107 -139 223
-293 115 -154 229 -299 253 -322 175 -168 492 -132 639 74 55 78 75 141 75
243 0 102 -19 164 -77 251 -35 52 -79 89 -342 286 -165 124 -305 229 -310 234
-5 4 9 42 32 86 97 188 136 352 136 578 1 166 -15 275 -56 394 -10 30 -16 56
-14 58 2 2 41 8 87 13 113 12 370 4 499 -16z m-3113 -56 c-30 -129 -38 -179
-47 -279 -23 -254 32 -515 154 -734 123 -218 349 -432 581 -548 258 -129 576
-174 843 -121 l32 6 0 -496 c0 -273 -2 -496 -4 -496 -1 0 -45 20 -97 44 -307
143 -575 205 -925 213 -242 6 -395 -9 -595 -58 -146 -35 -163 -36 -194 -4
l-25 24 0 1176 c0 824 3 1182 11 1197 13 23 55 43 164 74 103 29 109 29 102 2z
m-437 -1344 c0 -773 3 -1108 11 -1139 13 -52 74 -126 117 -144 24 -10 31 -21
36 -53 13 -78 60 -143 131 -181 40 -22 45 -22 713 -25 661 -2 672 -3 672 -22
0 -20 -11 -20 -920 -20 l-920 0 0 1315 0 1316 25 24 c20 21 34 25 80 25 l55 0
0 -1096z m4295 1071 l25 -24 0 -1316 0 -1315 -920 0 c-909 0 -920 0 -920 20 0
19 11 20 673 22 667 3 672 3 712 25 71 38 118 103 131 181 5 32 12 43 36 53
43 18 104 92 117 144 8 31 11 366 11 1139 l0 1096 55 0 c46 0 60 -4 80 -25z
m-3075 -2311 c129 -19 311 -64 421 -104 46 -17 85 -33 88 -36 2 -2 -303 -4
-678 -4 l-682 0 -25 25 c-52 52 -28 65 194 106 225 41 457 45 682 13z m2333 0
c59 -9 147 -26 195 -38 97 -24 110 -39 68 -81 l-25 -25 -683 0 c-385 0 -676 4
-668 9 29 17 195 70 295 95 100 25 272 52 375 60 95 7 331 -4 443 -20z"/>
<path d="M2103 3930 c-122 -40 -210 -153 -216 -275 -2 -49 1 -59 22 -76 55
-45 116 -13 131 68 20 110 66 143 197 143 77 0 95 -3 124 -23 52 -35 79 -82
79 -139 0 -86 -34 -127 -158 -193 -91 -48 -134 -102 -152 -192 -22 -104 3
-163 70 -163 52 0 71 25 79 104 4 35 13 72 21 81 8 9 45 32 83 51 126 64 188
139 205 248 24 152 -51 299 -183 357 -73 32 -218 37 -302 9z"/>
<path d="M2148 2960 c-24 -25 -29 -36 -23 -58 10 -43 34 -62 75 -62 72 0 101
80 46 127 -36 31 -61 29 -98 -7z"/>
</g>
</svg>
